<svg width="140" height="140" viewBox="0 0 140 140" fill="none" xmlns="http://www.w3.org/2000/svg">
<rect width="140" height="140" fill="#05163D"/>
<path d="M27.4126 49.6127V90.3911C27.4126 92.9865 28.7958 95.3882 31.0492 96.6878L66.3632 117.067C68.6166 118.367 71.3831 118.367 73.6365 117.067L108.95 96.6878C111.204 95.3882 112.587 92.9865 112.587 90.3911V49.6127C112.587 47.0172 111.204 44.6156 108.95 43.316L73.6365 22.9363C71.3831 21.6366 68.6166 21.6366 66.3632 22.9363L31.0492 43.316C28.8148 44.6156 27.4126 47.0172 27.4126 49.6127Z" fill="#05163D"/>
<path d="M77.7217 77.9041L72.679 91.7097C72.5308 92.0897 72.5308 92.5191 72.679 92.8991L81.3355 116.661L91.3563 110.873L79.3367 77.9041C79.0593 77.1365 77.9953 77.1365 77.7217 77.9041Z" fill="#12AAFF"/>
<path d="M87.8033 54.6743C87.5259 53.9067 86.4619 53.9067 86.1883 54.6743L81.1456 68.48C80.9974 68.86 80.9974 69.2894 81.1456 69.6694L95.3312 108.578L105.352 102.791L87.8033 54.6743Z" fill="#12AAFF"/>
<path d="M69.9999 24.4449C70.2545 24.4449 70.4901 24.5095 70.7219 24.6387L108.928 46.698C109.372 46.9526 109.65 47.42 109.65 47.9331V92.0517C109.65 92.5609 109.372 93.0283 108.928 93.2867L70.7219 115.369C70.5091 115.498 70.2545 115.563 69.9999 115.563C69.7453 115.563 69.5097 115.498 69.2779 115.369L31.0911 93.3095C30.6465 93.0549 30.3691 92.5875 30.3691 92.0745V47.9331C30.3691 47.4238 30.6465 46.9564 31.0911 46.698L69.2969 24.6387C69.5097 24.5095 69.7643 24.4449 69.9999 24.4449ZM69.9999 18C68.6395 18 67.2753 18.361 66.063 19.064L27.8573 41.1234C25.4328 42.5256 23.9204 45.1248 23.9204 47.9292V92.0479C23.9204 94.8562 25.4328 97.4706 27.8573 98.8766L66.063 120.936C67.2753 121.639 68.6357 122 69.9999 122C71.3641 122 72.7245 121.639 73.9368 120.936L112.143 98.8766C114.59 97.4706 116.079 94.879 116.079 92.0479V47.9292C116.079 45.121 114.567 42.5066 112.143 41.1006L73.9558 19.064C72.7207 18.361 71.3603 18 69.9961 18H69.9999Z" fill="#9DCCED"/>
<path d="M44.7522 108.62L48.2635 99.002L55.3278 104.873L48.7347 110.915L44.756 108.62H44.7522Z" fill="#213147"/>
<path d="M66.789 44.7791H57.1102C56.3882 44.7791 55.727 45.2237 55.4952 45.9039L34.7317 102.829L44.7524 108.616L67.6212 45.9267C67.815 45.3757 67.4084 44.7791 66.789 44.7791Z" fill="white"/>
<path d="M83.7411 44.7791H74.0624C73.3404 44.7791 72.6792 45.2237 72.4474 45.9039L48.7312 110.911L58.752 116.699L84.5505 45.9495C84.7633 45.3757 84.3377 44.7791 83.7411 44.7791Z" fill="white"/>
</svg>
