<svg width="140" height="140" viewBox="0 0 140 140" fill="none" xmlns="http://www.w3.org/2000/svg">
<rect width="140" height="140" fill="#F0B90B"/>
<path d="M42.7882 33.9298L70.1548 18L97.5213 33.9298L87.4601 39.8147L70.1548 29.7698L52.8494 39.8147L42.7882 33.9298ZM97.5213 54.0195L87.4601 48.1347L70.1548 58.1795L52.8494 48.1347L42.7882 54.0195V65.7893L60.0934 75.8342V95.9239L70.1548 101.809L80.216 95.9239V75.8342L97.5213 65.7893V54.0195ZM97.5213 85.8791V74.1093L87.4601 79.9942V91.764L97.5213 85.8791ZM104.665 90.0391L87.3596 100.084V111.854L114.726 95.9239V64.0644L104.665 69.9493V90.0391ZM94.6037 43.9747L104.665 49.8595V61.6293L114.726 55.7444V43.9747L104.665 38.0898L94.6037 43.9747ZM60.0934 104.345V116.115L70.1548 122L80.216 116.115V104.345L70.1548 110.23L60.0934 104.345ZM42.7882 85.8791L52.8494 91.764V79.9942L42.7882 74.1093V85.8791ZM60.0934 43.9747L70.1548 49.8595L80.216 43.9747L70.1548 38.0898L60.0934 43.9747ZM35.6446 49.8595L45.7058 43.9747L35.6446 38.0898L25.5833 43.9747V55.7444L35.6446 61.6293V49.8595ZM35.6446 69.9493L25.5833 64.0644V95.9239L52.9499 111.854V100.084L35.6446 90.0391V69.9493Z" fill="white"/>
</svg>
