<svg width="140" height="140" viewBox="0 0 140 140" fill="none" xmlns="http://www.w3.org/2000/svg">
<rect width="140" height="140" fill="black"/>
<path d="M115.51 93.6547L100.326 109.861C99.9954 110.216 99.596 110.499 99.1522 110.695C98.7084 110.891 98.229 110.995 97.7437 111H25.7635C25.4204 110.998 25.0854 110.896 24.7991 110.708C24.5128 110.519 24.2876 110.252 24.1509 109.939C24.0141 109.625 23.9717 109.278 24.0288 108.941C24.0859 108.604 24.24 108.29 24.4724 108.039L39.6568 91.8097C39.9871 91.4553 40.3864 91.1715 40.8303 90.9756C41.2743 90.7797 41.7535 90.6758 42.2389 90.6708H114.219C114.566 90.669 114.907 90.7688 115.198 90.9587C115.489 91.1483 115.717 91.4189 115.855 91.7368C115.993 92.0553 116.034 92.4065 115.972 92.7477C115.911 93.0885 115.75 93.4042 115.51 93.6547ZM100.326 60.9686C99.9968 60.6124 99.5978 60.3275 99.1536 60.1316C98.7094 59.9357 98.2295 59.8329 97.7437 59.8297H25.7635C25.4204 59.829 25.0846 59.9282 24.7974 60.1152C24.5101 60.3022 24.284 60.5688 24.1468 60.8822C24.0096 61.1957 23.9673 61.5423 24.0252 61.8794C24.083 62.2164 24.2385 62.5293 24.4724 62.7794L39.6568 79.0314C39.9858 79.3876 40.3849 79.6724 40.8291 79.8682C41.2733 80.0641 41.7532 80.1671 42.2389 80.1703H114.219C114.562 80.1712 114.898 80.0719 115.185 79.8846C115.472 79.6979 115.699 79.4314 115.836 79.1179C115.973 78.8045 116.015 78.4578 115.957 78.1207C115.9 77.7836 115.744 77.4707 115.51 77.2206L100.326 60.9686ZM25.7635 49.3064H97.7437C98.229 49.3012 98.7084 49.1975 99.1522 49.0017C99.596 48.8059 99.9954 48.5221 100.326 48.1675L115.51 31.9611C115.742 31.7096 115.897 31.3961 115.954 31.0589C116.011 30.7217 115.969 30.3752 115.831 30.0616C115.695 29.748 115.47 29.4807 115.183 29.2922C114.897 29.1038 114.562 29.0022 114.219 29H42.2389C41.7535 29.0052 41.2743 29.1089 40.8303 29.3047C40.3864 29.5005 39.9871 29.7843 39.6568 30.1389L24.4724 46.3453C24.24 46.5968 24.0859 46.9103 24.0288 47.2475C23.9717 47.5847 24.0141 47.9312 24.1509 48.2448C24.2876 48.5584 24.5128 48.8257 24.7991 49.0142C25.0854 49.2026 25.4204 49.3042 25.7635 49.3064Z" fill="url(#paint0_linear_20_2134)"/>
<defs>
<linearGradient id="paint0_linear_20_2134" x1="31.7618" y1="112.959" x2="106.979" y2="27.8953" gradientUnits="userSpaceOnUse">
<stop offset="0.08" stop-color="#9945FF"/>
<stop offset="0.3" stop-color="#8752F3"/>
<stop offset="0.5" stop-color="#5497D5"/>
<stop offset="0.6" stop-color="#43B4CA"/>
<stop offset="0.72" stop-color="#28E0B9"/>
<stop offset="0.97" stop-color="#19FB9B"/>
</linearGradient>
</defs>
</svg>
