<svg width="140" height="140" viewBox="0 0 140 140" fill="none" xmlns="http://www.w3.org/2000/svg">
<rect width="140" height="140" fill="#4DB8FF"/>
<path d="M95.5617 37C105.072 37.0001 111.107 47.2798 106.325 55.5672L74.7717 110.244C72.6535 113.919 67.3435 113.919 65.2253 110.244L33.6792 55.5672C28.8906 47.2669 34.9243 37.0002 44.4409 37H95.5617ZM74.8119 46.6465V93.1276L81.3869 80.4083L81.3903 80.4039L97.9611 50.7417C98.995 48.9479 97.7186 46.6466 95.5494 46.6465H74.8119ZM44.4343 46.6521C42.299 46.6524 41.0292 48.8831 41.9757 50.6637L42.0237 50.7496L58.6012 80.3972L58.6034 80.4016L65.1718 93.1143V46.6521H44.4343Z" fill="white"/>
</svg>
