<svg xmlns="http://www.w3.org/2000/svg" width="16" height="16" fill="currentColor"><path fill-rule="evenodd" d="M10.165 3.193a.48.48 0 0 0 .342-.145l.68-.706a.45.45 0 0 1 .325-.14h.03a.44.44 0 0 1 .335.153l.575.645a.59.59 0 0 0 .431.193h1.538a8 8 0 0 0-2.832-2.35 8.06 8.06 0 0 0-7.177 0 8 8 0 0 0-2.832 2.35zm.812 2.157h4.602c.225.637.366 1.3.421 1.973h-5.968a.57.57 0 0 1-.43-.195l-.575-.645a.46.46 0 0 0-.339-.15h-.026a.45.45 0 0 0-.326.137l-.683.708a.47.47 0 0 1-.338.145H0A8 8 0 0 1 .42 5.35h7.75a.85.85 0 0 0 .635-.287l.492-.553a.452.452 0 0 1 .675 0l.574.645a.57.57 0 0 0 .431.195M4.61 11.434a.5.5 0 0 1-.184.038l-3.657.005a7.9 7.9 0 0 1-.66-1.994h5.209a.86.86 0 0 0 .637-.284l.493-.553a.44.44 0 0 1 .522-.113q.088.04.153.113l.574.645a.58.58 0 0 0 .429.192h7.767a7.9 7.9 0 0 1-.662 1.99H7.14a.58.58 0 0 1-.431-.196l-.572-.645a.46.46 0 0 0-.339-.15H5.77a.46.46 0 0 0-.325.137l-.68.708a.5.5 0 0 1-.155.107m.361 2.014h2.104l6.799.01a8 8 0 0 1-2.67 1.88 8.06 8.06 0 0 1-9.072-1.88h.031a.85.85 0 0 0 .636-.287l.494-.563a.455.455 0 0 1 .678 0l.571.645a.57.57 0 0 0 .43.195" clip-rule="evenodd"/></svg>