<svg xmlns="http://www.w3.org/2000/svg" width="15" height="16" fill="none"><path fill="#2D374B" d="m8.93 7.331 1.176-1.994 3.168 4.933.001.947-.01-6.515a.49.49 0 0 0-.227-.39l-5.704-3.28a.5.5 0 0 0-.487.031l-.02.013-5.536 3.207-.021.01a.489.489 0 0 0-.286.417l.009 5.308 2.95-4.572c.372-.607 1.181-.802 1.933-.791l.882.023-5.197 8.331.613.353 5.258-8.676 2.325-.008-5.245 8.894 2.185 1.257.262.15c.11.045.24.048.352.007l5.783-3.35-1.106.64zm.449 6.457L7.17 10.324 8.52 8.038l2.899 4.568z"/><path fill="#28A0F0" d="m7.171 10.324 2.208 3.464 2.039-1.181-2.9-4.57zM13.275 11.217l-.001-.947-3.168-4.933L8.93 7.331l3.059 4.945 1.105-.64a.5.5 0 0 0 .181-.357z"/><path fill="#fff" d="m0 12.11 1.562.9 5.196-8.332-.882-.023c-.751-.01-1.561.185-1.933.79l-2.95 4.573L0 11.543zM9.757 4.678l-2.324.008-5.259 8.676 1.838 1.058.5-.848z"/><path fill="#96BEDC" d="M14.255 4.666a1.48 1.48 0 0 0-.695-1.19L7.782.154a1.5 1.5 0 0 0-1.326 0C6.408.178.836 3.409.836 3.409A1.47 1.47 0 0 0 0 4.663v6.88l.993-1.525L.984 4.71l.007-.058a.5.5 0 0 1 .197-.311c.027-.02 5.692-3.298 5.71-3.307a.5.5 0 0 1 .436-.002l5.704 3.28c.135.085.22.231.227.39v6.576a.48.48 0 0 1-.17.357l-1.107.64-.57.332-2.04 1.181-2.067 1.198a.5.5 0 0 1-.352-.007l-2.447-1.407-.5.848 2.199 1.265.349.195c.156.076.38.12.584.12q.279 0 .538-.101l6.007-3.478c.345-.267.547-.67.566-1.106z"/></svg>