<svg xmlns="http://www.w3.org/2000/svg" width="16" height="16" fill="none"><g clip-path="url(#a)"><path fill="#E84142" fill-rule="evenodd" d="M15.995 8c0 4.413-3.58 7.99-7.994 7.99C3.585 15.99.006 12.413.006 8 .006 3.589 3.586.012 8 .012s7.994 3.577 7.994 7.99m-10.26 3.18H4.184c-.326 0-.488 0-.586-.063a.4.4 0 0 1-.178-.308c-.006-.115.074-.257.235-.54l3.831-6.748c.163-.286.246-.43.35-.482a.4.4 0 0 1 .357 0c.104.053.187.196.35.482l.787 1.374.004.007c.176.308.266.464.305.627.043.179.043.367 0 .546-.04.165-.128.322-.307.634L7.32 10.264l-.005.009c-.177.31-.267.467-.392.585-.135.13-.298.224-.477.277-.163.045-.346.045-.71.045m3.918 0h2.223c.328 0 .493 0 .592-.064a.4.4 0 0 0 .178-.31c.006-.113-.073-.248-.227-.515l-.016-.027-1.114-1.904-.012-.022c-.157-.264-.236-.398-.337-.45a.39.39 0 0 0-.356 0c-.102.054-.184.193-.348.474l-1.11 1.904-.003.006c-.162.28-.244.42-.238.535a.4.4 0 0 0 .179.31c.096.063.261.063.59.063" clip-rule="evenodd"/></g><defs><clipPath id="a"><path fill="#fff" d="M0 0h16v16H0z"/></clipPath></defs></svg>