<svg xmlns="http://www.w3.org/2000/svg" width="16" height="16" fill="none"><path fill="#F7931A" fill-rule="evenodd" d="M6.064 15.76A7.999 7.999 0 1 0 9.935.239a7.999 7.999 0 0 0-3.871 15.523M9.768 4.843c1.108.382 1.919.954 1.76 2.018-.116.78-.548 1.157-1.121 1.29.787.41 1.188 1.038.806 2.128-.473 1.354-1.599 1.468-3.096 1.185l-.363 1.455-.878-.218.358-1.437q-.34-.084-.7-.181l-.359 1.443-.877-.219.364-1.458-.248-.065-.378-.097-1.143-.285.436-1.004s.647.172.638.159c.249.061.359-.1.403-.209l.574-2.3.092.022a1 1 0 0 0-.09-.03l.409-1.642c.01-.186-.054-.422-.41-.51.014-.01-.637-.159-.637-.159l.234-.937 1.21.302v.004q.272.068.56.132l.36-1.441.877.218-.353 1.414q.356.08.704.165l.35-1.404.877.219zM6.991 10.07c.717.19 2.282.603 2.531-.397.255-1.023-1.263-1.364-2.004-1.53q-.125-.027-.216-.05l-.482 1.933zm.676-2.823c.597.159 1.9.506 2.127-.402.231-.93-1.035-1.21-1.653-1.347l-.181-.042-.437 1.753z" clip-rule="evenodd"/></svg>