<svg xmlns="http://www.w3.org/2000/svg" width="14" height="16" fill="none"><path fill="#F0B90B" d="M2.663 2.45 6.9 0l4.236 2.45-1.558.906L6.9 1.811 4.22 3.356zm8.473 3.091-1.558-.905L6.9 6.181 4.22 4.636l-1.557.905v1.811l2.68 1.546v3.09l1.557.906 1.557-.906v-3.09l2.679-1.546zm0 4.902v-1.81l-1.558.905v1.81zm1.106.64-2.68 1.545v1.811l4.237-2.45V7.086l-1.557.905zm-1.558-7.087 1.558.905v1.811l1.557-.905v-1.81l-1.557-.906zm-5.342 9.288v1.81L6.9 16l1.557-.905v-1.811l-1.557.905zm-2.679-2.841 1.558.905v-1.81l-1.558-.906zm2.68-6.447 1.557.905 1.557-.905L6.9 3.091zm-3.786.905 1.558-.905-1.558-.905L0 3.996v1.81l1.557.906zm0 3.091L0 7.087v4.901l4.236 2.451v-1.81l-2.679-1.546z"/></svg>