<svg xmlns="http://www.w3.org/2000/svg" width="16" height="16" fill="none"><path fill="#1969FF" d="M7.31.153a1.6 1.6 0 0 1 1.363 0l3.952 2.086a.67.67 0 0 1 .384.495h.004v10.482a.65.65 0 0 1-.388.546l-3.951 2.085a1.6 1.6 0 0 1-1.364 0l-3.951-2.085a.64.64 0 0 1-.38-.545V2.734a.65.65 0 0 1 .38-.495zm5.08 8.43-3.716 1.96a1.6 1.6 0 0 1-1.364 0L3.6 8.587v4.61l3.71 1.947c.184.111.386.19.597.23l.085.006c.231-.024.455-.098.655-.219l3.744-1.982zM2.337 12.987c-.018.29.03.582.14.852.094.172.233.316.402.415l.012.008q.067.046.159.102l.073.045.224.135-.32.532-.252-.152-.042-.026a6 6 0 0 1-.19-.12c-.6-.405-.823-.846-.828-1.763v-.028zM7.68 5.773a1 1 0 0 0-.08.034L3.65 7.892l-.013.007-.003.002.006.003.009.005L7.6 9.995a1 1 0 0 0 .08.034zm.624 0v4.255a1 1 0 0 0 .079-.034l3.951-2.085.012-.007.003-.002-.006-.003-.009-.005-3.95-2.085a1 1 0 0 0-.08-.034m4.086-2.295-3.543 1.87 3.544 1.87zm-8.79.004v3.732l3.536-1.866zM8.383.702a.98.98 0 0 0-.783 0L3.65 2.789l-.013.007-.003.002.006.003.009.005L7.6 4.891a.98.98 0 0 0 .783 0l3.951-2.086.012-.006.003-.002-.006-.004-.009-.005zm4.592.23.25.151.043.026.19.12c.6.405.823.846.828 1.763v.028h-.622a1.9 1.9 0 0 0-.14-.851 1.1 1.1 0 0 0-.402-.416l-.012-.009-.159-.102-.073-.045-.224-.135z"/></svg>