<svg xmlns="http://www.w3.org/2000/svg" width="16" height="16" fill="none"><path fill="#0090FF" fill-rule="evenodd" d="M8 16c-4.4 0-8-3.6-8-8.04.04-4.4 3.6-8 8.04-7.96C12.44.04 16 3.6 16 8.08 15.96 12.44 12.4 16 8 16m.76-8.96-.24 1.28 2.28.32-.16.6-2.24-.32c-.16.52-.24 1.08-.44 1.56-.2.56-.4 1.12-.64 1.64-.32.68-.88 1.16-1.64 1.28-.44.08-.92.04-1.28-.24-.12-.08-.24-.24-.24-.36 0-.16.08-.36.2-.44.08-.04.28 0 .4.04.12.12.24.28.32.44.24.32.56.36.88.12.36-.32.56-.76.68-1.2.24-.96.48-1.88.68-2.84v-.16L5.2 8.44l.08-.6 2.2.32.28-1.24-2.28-.36.08-.64 2.36.32c.08-.24.12-.44.2-.64.2-.72.4-1.44.88-2.08s1.04-1.04 1.88-1c.36 0 .72.12.96.4.04.04.12.12.12.2 0 .16 0 .36-.12.48-.16.12-.36.08-.52-.08-.12-.12-.2-.24-.32-.36-.24-.32-.6-.36-.88-.08-.2.2-.4.48-.52.76-.28.84-.48 1.72-.76 2.6l2.2.32-.16.6z" clip-rule="evenodd"/></svg>