<svg xmlns="http://www.w3.org/2000/svg" width="14" height="16" fill="none"><path fill="currentColor" fill-rule="evenodd" d="M4.311 1.501 6.86.031a.24.24 0 0 1 .235 0l6.716 3.873c.073.042.117.12.118.203l.009 2.663a.24.24 0 0 1-.118.205l-2.545 1.467a.235.235 0 0 1-.353-.203l-.008-2.39a.24.24 0 0 0-.118-.203L4.31 1.908a.235.235 0 0 1 0-.407M2.666 13.566l-2.548-1.47A.23.23 0 0 1 0 11.894V4.148c0-.084.045-.161.117-.204l2.306-1.34a.23.23 0 0 1 .236 0l2.544 1.468a.235.235 0 0 1 .001.407L3.136 5.68a.23.23 0 0 0-.117.204v7.478a.235.235 0 0 1-.353.203m11.272-1.674V8.955a.235.235 0 0 0-.354-.204L7.1 12.49a.24.24 0 0 1-.235 0L4.79 11.302a.236.236 0 0 0-.353.204v2.934c0 .085.045.163.119.205l2.314 1.324a.23.23 0 0 0 .235 0l6.716-3.873a.23.23 0 0 0 .118-.203" clip-rule="evenodd"/></svg>