<svg xmlns="http://www.w3.org/2000/svg" width="16" height="16" fill="none"><path fill="#fff" fill-rule="evenodd" d="M8.004 0c2.278 0 4.335.955 5.787 2.48.202.202.391.429.55.649l-6.343 6.35-6.345-6.344a10 10 0 0 1 .564-.655A7.98 7.98 0 0 1 8.004 0m4.917 3.08a6.86 6.86 0 0 0-4.917-2.039A6.87 6.87 0 0 0 3.086 3.08l4.918 4.917zm1.929.778L13.558 5.15a2.94 2.94 0 0 1-4.14 4.14l-1.414 1.413L6.589 9.29a2.94 2.94 0 0 1-4.14-4.14l-.66-.66-.632-.631A7.995 7.995 0 0 0 7.997 16a8 8 0 0 0 7.998-7.997 7.8 7.8 0 0 0-1.145-4.145M12.945 5.75c.276.355.435.796.435 1.273A2.07 2.07 0 0 1 11.304 9.1a2.04 2.04 0 0 1-1.273-.435zM5.983 8.67a2.07 2.07 0 0 1-1.274.435A2.07 2.07 0 0 1 2.633 7.03c0-.483.16-.924.435-1.273z" clip-rule="evenodd"/></svg>