<svg xmlns="http://www.w3.org/2000/svg" width="16" height="16" fill="none"><path fill="url(#a)" d="M6.885 7.249h2.152V3.475a3.46 3.46 0 0 1 .673-2.07A3.44 3.44 0 0 1 11.485.15a3.43 3.43 0 0 1 3.879 1.402c.366.541.56 1.18.559 1.835v9.182c0 1.853-1.504 3.4-3.305 3.415-1.998.018-3.558-1.442-3.58-3.37-.015-1.284 0-2.57 0-3.863H6.886v3.774a3.46 3.46 0 0 1-.673 2.07 3.44 3.44 0 0 1-1.775 1.255 3.434 3.434 0 0 1-3.879-1.402A3.26 3.26 0 0 1 0 12.613q.008-4.59 0-9.182C0 1.574 1.494.031 3.301.015 5.3-.002 6.86 1.458 6.881 3.387c.019 1.283.004 2.568.004 3.862M5.44 7.46c0-1.419.057-2.791-.018-4.159-.063-1.157-1.021-1.93-2.116-1.863-1.094.069-1.887.957-1.89 2.119v5.38C2.666 8.08 4.022 7.72 5.44 7.46m5.028 1.081c0 1.388-.051 2.733.016 4.072.061 1.215 1.01 2.018 2.135 1.947 1.103-.068 1.887-.962 1.887-2.166V7.056c-1.252.875-2.615 1.22-4.038 1.486m.005-1.412c.735-.224 1.423-.38 2.069-.64 1.243-.505 2.09-1.12 1.978-2.905-.076-1.188-.81-2.089-1.917-2.148-1.108-.06-2.045.728-2.115 1.92-.07 1.193-.015 2.417-.015 3.774zm-5.07 1.758c-.652.193-1.307.348-1.933.581-1.655.621-2.148 1.398-2.055 3.153.025.5.231.972.58 1.33a2.04 2.04 0 0 0 1.311.61c.99.06 2.003-.635 2.072-1.603.095-1.312.024-2.643.024-4.07"/><defs><linearGradient id="a" x1="1.008" x2="14.928" y1="14.808" y2=".955" gradientUnits="userSpaceOnUse"><stop stop-color="#00AEE9"/><stop offset="1" stop-color="#69FABD"/></linearGradient></defs></svg>