<svg xmlns="http://www.w3.org/2000/svg" width="16" height="16" fill="none"><path fill="currentColor" d="m12.821.818-3.338 4.96c-.231.338.213.746.532.462l3.286-2.862c.089-.071.213-.018.213.106v8.943c0 .124-.16.178-.231.088L3.339.605A1.64 1.64 0 0 0 2.042 0h-.355C.764 0 0 .764 0 1.707v12.586C0 15.236.764 16 1.705 16c.586 0 1.136-.302 1.456-.818l3.338-4.96c.231-.338-.213-.746-.532-.462L2.68 12.605c-.088.07-.213.017-.213-.107V3.573c0-.124.16-.177.231-.089l9.945 11.912c.32.39.799.604 1.296.604h.355c.941 0 1.705-.764 1.705-1.707V1.707A1.733 1.733 0 0 0 14.277 0c-.586 0-1.136.302-1.456.818"/></svg>