<svg xmlns="http://www.w3.org/2000/svg" width="16" height="16" fill="none"><path fill="#FF0420" d="M8 16A8 8 0 1 0 8 0a8 8 0 0 0 0 16"/><path fill="#fff" d="M5.668 10.126q-.714 0-1.17-.336-.45-.342-.45-.973 0-.132.03-.324.077-.432.221-1.039.408-1.65 2.108-1.65.462 0 .828.155.367.15.577.457.21.3.21.72 0 .126-.03.318a14 14 0 0 1-.216 1.04q-.21.821-.727 1.23-.516.402-1.38.402m.084-.864a.85.85 0 0 0 .57-.199q.24-.198.343-.606.138-.564.21-.985.024-.126.024-.258 0-.546-.57-.546a.88.88 0 0 0-.577.198q-.234.198-.336.606-.108.403-.216.985-.024.12-.024.252 0 .553.576.553M8.298 10.066a.13.13 0 0 1-.102-.042.14.14 0 0 1-.018-.108l.828-3.903a.17.17 0 0 1 .066-.108.2.2 0 0 1 .114-.042h1.597q.667 0 1.07.276.407.277.408.799 0 .15-.036.312-.15.69-.607 1.02-.45.331-1.237.331h-.81l-.277 1.315a.17.17 0 0 1-.066.108.2.2 0 0 1-.114.042zm2.125-2.293a.7.7 0 0 0 .438-.139.65.65 0 0 0 .253-.396q.018-.102.018-.18 0-.174-.102-.264-.103-.096-.349-.096h-.72l-.228 1.075z"/></svg>