<svg xmlns="http://www.w3.org/2000/svg" width="15" height="17" fill="none"><path fill="#7B4EE7" fill-rule="evenodd" d="m7.14 1.356 5.986 3.455v.608l-.605 1.149a1.91 1.91 0 0 1-1.686 1.018H3.49c-.922 0-1.775.423-2.334 1.119V4.81zm-5.984 9.852v.514l5.985 3.456 5.985-3.456V7.609a3 3 0 0 1-2.291 1.066H3.49c-.779 0-1.48.475-1.77 1.198l-.472 1.183a.5.5 0 0 1-.092.152M14.215 5.62v6.101c0 .39-.208.749-.545.943l-5.985 3.456a1.09 1.09 0 0 1-1.089 0L.611 12.665a1.09 1.09 0 0 1-.544-.943v-6.91c0-.39.207-.75.544-.944L6.596.413a1.09 1.09 0 0 1 1.09 0l5.984 3.455c.337.195.545.554.545.943v.656a.5.5 0 0 1 0 .154M3.329 5.135c0-.601.487-1.089 1.089-1.089h1.361c.602 0 1.09.488 1.09 1.09v1.633h-1.09V5.135H4.418V6.77h-1.09zm1.089 7.216a1.09 1.09 0 0 1-1.09-1.09V9.629h1.09v1.634h1.361V9.628h1.09v1.634a1.09 1.09 0 0 1-1.09 1.089zm3.267-7.216c0-.601.488-1.089 1.09-1.089h1.36c.602 0 1.09.488 1.09 1.09v1.633h-1.09V5.135h-1.36V6.77h-1.09zm1.09 7.216a1.09 1.09 0 0 1-1.09-1.09V9.629h1.09v1.634h1.36V9.628h1.09v1.634a1.09 1.09 0 0 1-1.09 1.089z" clip-rule="evenodd"/></svg>