<svg xmlns="http://www.w3.org/2000/svg" width="18" height="16" fill="none"><path fill="url(#a)" d="m13.36 11.268 4.267-2.474a.74.74 0 0 0 .366-.637V3.21a.74.74 0 0 0-.366-.637L13.36.098a.73.73 0 0 0-.732 0L8.36 2.572a.74.74 0 0 0-.366.637v8.843L5 13.786l-2.993-1.734v-3.47L5 6.848l1.974 1.145V5.665l-1.608-.933a.74.74 0 0 0-.732 0L.366 7.207A.74.74 0 0 0 0 7.843v4.948c0 .262.14.506.366.637l4.268 2.474c.226.13.506.13.732 0l4.268-2.474a.74.74 0 0 0 .366-.637V3.95l.053-.03 2.939-1.704 2.993 1.734v3.47l-2.993 1.733-1.971-1.142v2.328l1.605.93c.226.13.507.13.732 0z"/><defs><linearGradient id="a" x1="-.058" x2="17.255" y1="13.276" y2="3.267" gradientUnits="userSpaceOnUse"><stop stop-color="#A726C1"/><stop offset=".88" stop-color="#803BDF"/><stop offset="1" stop-color="#7B3FE4"/></linearGradient></defs></svg>