<svg xmlns="http://www.w3.org/2000/svg" width="16" height="16" fill="none"><path fill="#004DE5" fill-rule="evenodd" d="M2 1.23v9.872c0 .184.044.366.128.532s.207.313.358.428l4.906 3.736c.172.13.387.202.608.202s.436-.071.608-.203l4.906-3.735c.151-.115.274-.261.358-.428s.128-.348.128-.532V1.23a1.2 1.2 0 0 0-.38-.87A1.33 1.33 0 0 0 12.703 0H3.297c-.344 0-.674.13-.917.36a1.2 1.2 0 0 0-.38.87" clip-rule="evenodd" style="fill:#004de5;fill:color(display-p3 0 .302 .898);fill-opacity:1"/><path fill="url(#a)" d="M11.998 5.727V3.242c0-.33-.135-.645-.375-.878A1.3 1.3 0 0 0 10.718 2H5.28a1.3 1.3 0 0 0-.905.364c-.24.233-.375.549-.375.878v7.21c0 .187.043.37.126.538s.204.315.354.432l1.98 1.543q.037.028.082.034a.16.16 0 0 0 .154-.072.15.15 0 0 0 .025-.083V7.746c0-.04.017-.08.047-.11q.047-.044.113-.045h1.44c.254 0 .498.098.678.273s.281.412.281.659v4.321q0 .045.025.083a.164.164 0 0 0 .235.038l1.98-1.543c.15-.117.27-.264.354-.432s.126-.351.126-.538v-2.24c0-.33-.135-.645-.375-.878a1.3 1.3 0 0 0-.905-.364 1.3 1.3 0 0 0 .904-.365c.24-.233.374-.549.374-.878m-3.68.622H6.88a.16.16 0 0 1-.113-.046.15.15 0 0 1-.047-.11V3.398q.001-.063.047-.11.047-.045.113-.046h2.24c.042 0 .083.017.113.046q.045.047.046.11v2.019a.92.92 0 0 1-.28.659.98.98 0 0 1-.68.273"/><defs><linearGradient id="a" x1="8" x2="8" y1="2" y2="13" gradientUnits="userSpaceOnUse"><stop stop-color="#fff" style="stop-color:white;stop-opacity:1"/><stop offset=".458" stop-color="#fff" style="stop-color:white;stop-opacity:1"/><stop offset="1" stop-color="#fff" style="stop-color:white;stop-opacity:1"/></linearGradient></defs></svg>