<svg xmlns="http://www.w3.org/2000/svg" width="17" height="16" fill="none"><path fill="#CBA68D" d="M1.795 1.019c-.26-.013-.53-.027-.76.162-.115.095-.26.244-.205.437q.009.028.022.055l.008.014.022.034q.005.007.012.013.012.015.026.028l.015.01q.015.013.032.023l.018.009.037.017.021.006.042.011.026.005.044.006.034.001.034.002h.02a31 31 0 0 1 1.053-.002h.078l-.006.04-.008.047-.01.046-.009.045-.012.044-.011.042-.014.043-.014.04-.016.04-.016.037-.018.038-.018.035-.02.036-.02.033-.023.033-.022.03-.025.032-.024.028-.028.03-.025.025-.03.028-.027.023-.034.026-.028.02q-.018.013-.038.024l-.029.019q-.02.012-.042.022l-.028.015-.05.023-.026.01a1.3 1.3 0 0 1-.192.062l-.036.007-.078.015-.052.007-.061.007-.062.003-.051.003h-.113q-.036 0-.07-.003l-.042-.002q-.036-.002-.07-.006-.02 0-.041-.003l-.062-.007-.045-.005c-.6-.477-.802-1.16-.542-1.826C.455.366 1.03.029 1.852.079q.277.093.534.233l.083.05q.042.027.08.055h.002l.076.058.002.002q.036.03.071.062l.004.004q.033.03.065.064l.007.008q.03.032.058.066l.011.015q.025.03.048.064l.017.026q.02.028.037.058l.024.042.025.047.03.065.01.024-1.107.003z"/><path fill="#2B2129" d="M1.146 2.983h-.09L.998 2.98l-.3-.026L.68 2.94C.055 2.442-.156 1.727.117 1.03.398.307 1-.047 1.857.005l.02.004A3.2 3.2 0 0 1 2.508.3a2 2 0 0 1 .241.185 2 2 0 0 1 .141.15l.012.015q.027.032.051.068l.012.018A2 2 0 0 1 3.03.84l-.056.051.065-.035a1 1 0 0 1 .055.112l.053.126L1.93 1.1l-.135-.006h-.004c-.258-.013-.502-.026-.709.145-.159.132-.214.243-.18.36q.007.022.016.042l.023.036c.016.018.021.024.028.03l.035.025.014.007q.015.008.03.013l-.004.076.022-.07.034.01.023.003.039.005.062.003h.017c.28-.006.566-.004.82-.003l.398.001-.017.118-.068.009.065.01-.014.075-.077.007.073.015-.017.071-.078.003.072.019-.02.067-.078-.002.07.023-.024.064-.077-.007.07.027-.028.06-.076-.012.066.032-.014.027-.016.03-.075-.019.064.037-.016.026-.018.027-.074-.024.061.041-.017.024q-.01.014-.02.026l-.072-.03.058.047-.018.021-.023.025-.069-.036.054.051-.02.02-.025.022-.065-.04.05.055-.021.018-.028.02-.063-.045.045.059-.021.015-.03.02-.06-.05.04.062-.021.014-.035.018-.055-.054.035.065-.02.01q-.022.012-.046.021l-.047-.06.03.068-.018.007a1.4 1.4 0 0 1-.203.065l-.025.005-.028-.07.005.075-.071.014-.037.004-.036.004a1 1 0 0 1-.093.009l-.07.003zm-.042-.149h.065l.067-.003.041-.002.04-.005.069-.008.063-.013.045-.009a1.3 1.3 0 0 0 .182-.058l.023-.01.047-.02.037-.02.03-.016.249-.215.148-.257.077-.274H2.06a31 31 0 0 0-.816.002h-.02l-.028-.001-.017-.075-.003.074a.55.55 0 0 1-.285-.092.2.2 0 0 1-.052-.048.2.2 0 0 1-.043-.06l-.01-.018a.4.4 0 0 1-.027-.067c-.076-.262.153-.452.229-.515.25-.207.548-.192.81-.179l-.003.074L1.8.945h.004l.128.006.99-.003-.012-.02-.025-.046-.035-.055-.016-.025-.046-.06.047-.06-.058.046a1.3 1.3 0 0 0-.194-.193A1.5 1.5 0 0 0 2.35.377a3 3 0 0 0-.513-.225C1.057.108.51.43.255 1.082c-.246.63-.058 1.274.502 1.73l.235.02.068.002h.044"/><path fill="#2B2129" d="m1.964 1.09.022.018q.01.007.021.017l.022.018.02.018.02.017.022.021V1.2q.104.095.176.214.015.024.028.049v.002l.023.048.002.004.018.049.002.006.014.049.003.009.009.047.002.014.005.045.002.019.001.042v.02l-.317-.001-.227-.001q-.295-.001-.59.004c-.213.003-.337-.065-.38-.21-.05-.175.087-.313.194-.402a.7.7 0 0 1 .123-.08l.004-.002a.7.7 0 0 1 .126-.047l.008-.002a1 1 0 0 1 .129-.023l.01-.001.061-.005h.017l.051-.001h.012l.094.001h.005l.098.005q.064.004.13.006l.018.014z"/><path fill="#2B2129" d="M1.227 1.893q-.358 0-.436-.264c-.07-.24.147-.42.218-.479l.061-.045.016-.01a.7.7 0 0 1 .129-.064l.017-.007A1 1 0 0 1 1.364.99L1.38.987a1 1 0 0 1 .133-.014h.015a2 2 0 0 1 .166 0l.103.005.128.006h.024l.032.025-.033.068.045-.058.033.026-.033.068.046-.058.031.026-.035.068.048-.057.029.026-.038.066.05-.055.018.017a1.1 1.1 0 0 1 .218.283.8.8 0 0 1 .087.3l.002.021.001.042v.099l-.619-.002a24 24 0 0 0-.604.004m.15-.83.013.072a.7.7 0 0 0-.174.056l-.05.029-.014.008-.049.036c-.147.122-.2.222-.17.324.022.075.077.16.308.157q.295-.006.59-.004l.521.002.021-.007-.074.006a.7.7 0 0 0-.03-.147 1 1 0 0 0-.065-.142 1 1 0 0 0-.163-.2l-.144-.122-.107-.005-.097-.005a3 3 0 0 0-.157 0l-.02-.074.004.074a1 1 0 0 0-.115.012z"/><path fill="#BB9168" d="M2.604 3.214a5.8 5.8 0 0 1-1.323-.067 1.03 1.03 0 0 1-.514-.226q.01 0 .02.002a4 4 0 0 0 .208.016l.06.002.045.001h.045a2 2 0 0 0 .201-.014l.046-.006q.041-.006.082-.015l.04-.007a1.4 1.4 0 0 0 .203-.064c.397-.161.623-.485.69-.986h.002v-.015l.003-.018H2.41v-.052l-.003-.022q0-.022-.004-.043-.001-.014-.004-.026l-.007-.037-.006-.026-.01-.034-.008-.025-.011-.032-.01-.025-.014-.03-.012-.023a.8.8 0 0 0-.133-.19l-.02-.022-.019-.02-.021-.021-.02-.019-.022-.02-.02-.018-.022-.02-.02-.017L2 1.075l-.02-.015-.002-.002 1.074-.003q.014.022.027.043l.024.039.023.047.019.04.017.049.015.04.012.05q.006.02.01.04.006.026.01.05l.007.04.006.054.004.034.004.063.002.024.002.084c.004.347.004.7.004 1.042v.415c-.211-.006-.426 0-.634.005"/><path fill="#2B2129" d="M2.165 3.295a4.5 4.5 0 0 1-.899-.076 1.1 1.1 0 0 1-.55-.244l-.164-.153.223.025.009.055.006-.006.005-.047.306.02.015.073.001-.074h.027l.075-.003.045-.003.073-.007.044-.006.078-.014.038-.008a1.3 1.3 0 0 0 .192-.06c.37-.15.581-.453.645-.926l.002-.014V1.77l.071-.026-.074.006q0-.023-.003-.04l-.05-.18-.113-.187-.233-.224-.167-.131.21-.003L3.09.981l.023.032.023.036.014.022a1 1 0 0 1 .037.07l.012.024a1 1 0 0 1 .029.07l.009.026a1 1 0 0 1 .021.07l.007.027a1 1 0 0 1 .015.07l.01.054.005.046-.071.033.073-.01.003.023.004.064.002.027.002.086c.004.346.004.697.004 1.037v.497l-.076-.002c-.21-.006-.424 0-.63.005l-.002-.074v.074q-.217.006-.439.007m.436-.155.003.074zq.276-.01.562-.007v-.339a81 81 0 0 0-.006-1.123l.072-.027-.074.004q0-.032-.004-.06l-.003-.033-.006-.052-.007-.037-.008-.047-.01-.038-.012-.046-.014-.038c-.008-.024-.011-.034-.016-.044l-.01-.022-.007-.015-.021-.044-.013-.021-.01-.014-.004-.008-.836.002.162.193.09.169.01.033.01.03.01.033.008.032.006.036.006.033.004.044v.01h.013l-.01.1v.009l-.003.071h-.01c-.081.494-.32.815-.726.98a1.4 1.4 0 0 1-.215.068l-.028.005c-.042.009-.07.014-.1.019l-.045.006-.082.008-.048.003-.081.002-.03.001h-.04q.108.037.22.058c.431.071.869.094 1.305.066"/><path fill="#E5D1B8" d="m5.62 15.887-.01.02q-.008.01-.012.019h-.681a1 1 0 0 1-.277-.048l-.026-.007c-.851-.205-1.375-.914-1.367-1.85a818 818 0 0 0 .015-7.834l-.003-2.93v-.449c0-.34 0-.694-.004-1.04a1.3 1.3 0 0 0-.135-.633 1 1 0 0 0-.054-.088 1 1 0 0 0-.043-.099L3.006.917Q2.991.885 2.973.855 2.963.837 2.952.82 2.936.792 2.919.768L2.894.733 2.86.687 2.832.654 2.796.612l-.03-.031a1.4 1.4 0 0 0-.3-.24 2 2 0 0 0-.212-.116l-.042-.02-.044-.02-.044-.02L2.08.148l-.047-.02-.038-.014-.052-.02L1.94.093 1.971.09q.122-.007.246-.008l2.966.001C7.58.087 10.06.09 12.497.074h.01a1.73 1.73 0 0 1 1.236.528c.34.338.532.797.534 1.276-.022 2.642-.017 5.329-.012 7.927l.005 2.938-.13.003q-.155.003-.312.004l-7.137.002H5.74l-.04-.002a1 1 0 0 1-.088-.005 1.36 1.36 0 0 0-1.32.514 1.4 1.4 0 0 0-.164.287 1.4 1.4 0 0 0 .41 1.681l.042.04.005.004-.005-.004.108.03h-.078a.92.92 0 0 0 .567.249q.083.009.167.014l.06.003.108.005h.006q.165.005.326.005h.03q.11 0 .218.003a.3.3 0 0 1-.041.037l-.008.006-.045.03-.01.005-.048.025-.01.005-.05.022h-.001l-.058.027-.024.011-.015.009-.025.013-.016.01-.022.014-.016.012-.02.016-.014.014-.019.018-.013.017z"/><path fill="#2B2129" d="M5.598 16h-.681q-.151-.006-.295-.05l-.027-.007c-.885-.214-1.43-.95-1.422-1.922.022-2.61.018-5.263.015-7.83l-.003-2.934V2.81c0-.346 0-.696-.004-1.04a1.25 1.25 0 0 0-.126-.599 1 1 0 0 0-.05-.08l-.009-.016-.04-.094L2.94.95 2.91.891 2.888.858 2.858.81 2.83.771 2.802.733 2.782.71l-.04-.048-.024-.024-.041-.041-.03-.028-.038-.033-.033-.027-.039-.03-.272-.166-.347-.15L1.58.038l.387-.02c.18-.01.364-.01.546-.01l2.67.002h.05c2.38.003 4.843.005 7.264-.01a1.81 1.81 0 0 1 1.298.55c.354.352.554.83.556 1.33-.022 2.639-.017 5.323-.012 7.92l.005 2.943v.073l-.203.004q-.158.004-.313.004l-8.089.002-.04-.002a1 1 0 0 1-.099-.006 1.29 1.29 0 0 0-1.232.462l-.017.023a1.3 1.3 0 0 0-.156.272 1.33 1.33 0 0 0 .389 1.595l.033.03.637.183-.413-.008a1 1 0 0 0 .343.097q.081.009.164.014l.081.004.084.004q.172.005.33.005h.016c.088 0 .16.002.234.003l.164.003-.112.121a.4.4 0 0 1-.11.086l-.064.034-.142.064-.048-.058.034.066-.022.012-.053-.054.04.063-.02.012-.058-.05.045.06-.017.012-.063-.041.052.053-.014.014-.069-.032.058.045-.048.076zM3.131 1.012q.03.042.054.087c.103.207.152.437.144.668.004.345.004.696.004 1.035v.455q0 1.466.003 2.93c.003 2.571.007 5.225-.015 7.836-.007.899.495 1.58 1.31 1.777l.028.007q.125.038.258.045h.638l.004-.005.016-.023a.4.4 0 0 1 .038-.042l.02-.02.021-.017.13-.077.046-.021c-.112 0-.213-.002-.315-.005q-.052 0-.094-.004l-.083-.004-.17-.014a1 1 0 0 1-.612-.271l-.071-.069a2 2 0 0 1-.144-.133l-.033-.031.006.001a1.46 1.46 0 0 1-.255-1.6 1.5 1.5 0 0 1 .173-.301l.02-.026a1.43 1.43 0 0 1 1.369-.518 1 1 0 0 0 .078.005l.044.001 8.085-.002q.154 0 .306-.004l.062-.001q0-1.432-.005-2.866c-.005-2.602-.01-5.287.012-7.927-.003-.46-.187-.9-.513-1.224a1.66 1.66 0 0 0-1.183-.506c-2.431.015-4.894.013-7.275.01h-.049l-2.9-.001.26.147.045.03.037.026.043.033.036.03.041.035.034.032q.02.019.04.04l.032.032.035.041.032.038.032.043-.048.06.06-.044.018.026.03.048-.05.058.062-.04.016.026.032.06-.057.051.065-.035.011.022q.023.047.042.096"/><path fill="#BB9168" d="M5.977 14.457q.011-.08.013-.161a.55.55 0 0 0-.145-.451l-.035-.05-.009-.014-.024-.037-.011-.019-.019-.034-.01-.022-.01-.021h.005l.832-.014q.014.024.026.048l.036.066.024.057q.016.03.027.063.012.033.02.065l.02.059.016.075.01.05q.008.048.011.096l.004.03a1.52 1.52 0 0 1-.394 1.1l-.038.04q-.03.031-.06.062-.051.05-.107.098l-.279-.004q-.162 0-.326-.005h-.009q-.04 0-.08-.003a4 4 0 0 1-.332-.03q-.012 0-.024-.004l-.049-.01-.027-.007-.042-.012-.027-.01a.8.8 0 0 1-.237-.125l-.02-.017-.02-.018h.112a1.5 1.5 0 0 0 .598-.082q.078-.032.151-.077a.92.92 0 0 0 .429-.682"/><path fill="#2B2129" d="M6.185 15.617h-.028q-.135-.003-.271-.004-.17 0-.335-.005l-.09-.004a4 4 0 0 1-.34-.03l-.017-.003-.06-.012-.021-.006-.054-.015-.023-.007-.048-.018-.025-.01-.043-.02-.028-.014-.036-.02-.026-.017-.034-.023-.07-.057-.135-.126.185-.002.113-.001c.193.012.387-.013.57-.075a.84.84 0 0 0 .535-.7q.01-.078.012-.154a.5.5 0 0 0-.132-.407l-.044-.065-.026-.04-.008-.014-.025-.043-.062-.148.107-.003.88-.015.021.037.02.034.017.032a1 1 0 0 1 .047.096l.015.035a1 1 0 0 1 .037.1l.012.036a1 1 0 0 1 .027.108l.007.033.007.035q.009.05.012.101l.004.032a1.6 1.6 0 0 1-.438 1.18l-.025.028-.05.052a2 2 0 0 1-.113.101zM4.94 15.37l.013.006.036.013.025.008.039.011.026.007.045.01.01.077.013-.073.072.01q.124.013.25.018l.08.003q.174.005.333.005.13 0 .251.003.043-.037.083-.076l.045-.047.027-.03.021-.021a1.44 1.44 0 0 0 .376-1.046l-.003-.028a1 1 0 0 0-.016-.118l-.008-.037q-.005-.028-.012-.055l-.011-.035-.013-.04-.013-.041-.017-.041-.017-.04-.015-.033-.024-.045-.015-.026-.67.01.013.021-.053.055.062-.041.033.048a.62.62 0 0 1 .158.509q0 .079-.013.157a.99.99 0 0 1-.625.817c-.155.058-.32.087-.486.085m.86-1.65-.022.024.038-.024z"/><path fill="#2B2129" d="M5.96 14.278h-.238l-.702-.004h-.021c-.113 0-.22 0-.258-.133a.31.31 0 0 1 .091-.314l.053-.05.017-.015.039-.03.018-.013.045-.027.012-.008.057-.026.02-.008a1 1 0 0 1 .104-.028l.023-.005.06-.007.026-.002.04-.001h.029q.022 0 .046.002h.023l.073.008h.008l.076.012h.004l.085.017.014.03q.004.014.01.024l.02.037.012.02.025.039.01.015.037.053q.016.024.033.047.003.006.007.01l.025.039.006.01.022.039.004.009.02.042.003.008q.008.022.015.044l.002.01.009.045v.015l.001.043-.002.026z"/><path fill="#2B2129" d="M6.021 14.352h-.3l-.702-.004H5c-.117 0-.276-.001-.33-.187a.38.38 0 0 1 .11-.384l.057-.056.015-.012.046-.037.021-.014.05-.03.014-.009.063-.03.017-.006.05-.017.027-.007.044-.01.026-.005.065-.008.02-.001.051-.002h.03q.026 0 .05.002l.025.001a2 2 0 0 1 .255.037l.04.009.031.075.02.04.008.012c.013.022.02.034.029.046l-.052.056.062-.041.07.1.033.05a1 1 0 0 1 .058.111.6.6 0 0 1 .033.128l.001.018a.4.4 0 0 1-.006.114zm-.062-.127v.001l.007-.001zm-1.074-.448.05.055-.049.046a.24.24 0 0 0-.074.242c.02.07.056.08.187.08h.021l.702.003h.17a.4.4 0 0 0-.009-.064.3.3 0 0 0-.033-.087l-.025-.043-.116-.173-.026-.04-.009-.016-.026-.046-.009-.02.004-.002-.127-.02-.077-.008-.022-.002-.044-.001h-.026l-.037.001-.024.002-.054.006-.021.005-.035.007-.022.007-.035.011-.046-.062.028.069a.6.6 0 0 0-.1.054l-.015.01-.037.028zm.8-.102-.002.006.017-.013z"/><path fill="#CBA58C" d="M5.704 13.615c-.312-.065-.636-.087-.896.19a.34.34 0 0 0-.1.345c.045.156.176.157.29.157h.022q.34.003.683.003l.253.001-.002.032-.002.039-.005.039-.004.037-.007.037-.006.036-.01.036-.008.034-.01.035-.012.032-.013.033-.012.03-.016.032-.014.03-.018.03-.016.027-.02.028-.019.026-.021.026-.02.025-.025.025-.022.022-.027.023-.023.02-.03.023-.024.018-.034.022-.024.015-.04.02q-.01.008-.022.013l-.066.03c-.188.064-.387.09-.585.078l-.148.001-.018-.017.019.017-.069-.063a1.36 1.36 0 0 1-.357-1.744l.017-.03.036-.063.023-.034.037-.053.026-.033a1 1 0 0 1 .113-.124q.013-.015.028-.027.024-.023.052-.044l.025-.021q.034-.026.07-.05l.013-.009q.044-.028.089-.053l.016-.007q.037-.02.076-.037l.03-.012.066-.026.035-.01a1.3 1.3 0 0 1 .28-.058l.036-.004.081-.004h.03q.04 0 .083.002l.034.001.118.012q.045.006.092.006l.028.001.004.015.004.017.008.02.008.014.01.016.01.013.014.014.01.01.016.012.011.008.019.01.01.007.022.011.01.005.03.014.02.009a1 1 0 0 1 .1.052l.03.02q.033.018.063.04l.03.024q.029.02.055.044l.028.026q.026.024.05.05l.024.029.045.054.023.034.039.058.023.042.03.056.027.06.016.036z"/><path fill="#2B2129" d="m4.623 15.34-.022-.02-.068-.064a1.43 1.43 0 0 1-.373-1.833l.012-.021.045-.077.017-.027.046-.065.027-.034.042-.052.03-.032.047-.048.03-.028.055-.047.027-.022.074-.053.014-.01q.045-.028.094-.055l.017-.008q.04-.021.08-.039l.022-.009.08-.03.03-.01.076-.023.04-.01.07-.014.04-.007.075-.009.039-.004.084-.004h.031q.044 0 .088.002l.034.001q.062.004.124.013a1 1 0 0 0 .083.005l.085.003.036.11.032.031.11.059q.056.025.108.055l.02.013-.021.074.039-.063.06.04.022.017-.035.067.054-.053.05.041.02.02-.041.062.057-.048a1 1 0 0 1 .065.069l-.044.062.056-.048a1 1 0 0 1 .061.078l-.053.054.064-.038q.02.028.038.057l.018.032-.058.049.07-.028a1 1 0 0 1 .052.107l-.05.037v.004l.057-.025.052.13-.96.015-.008-.002c-.336-.07-.605-.068-.827.168a.27.27 0 0 0-.082.275c.026.093.087.103.22.103h.02q.341.003.683.003l.33.002-.011.183-.076.009.074.008-.01.062-.075.004.073.013-.013.06-.076-.001.071.018-.016.056-.076-.005.07.022-.019.054-.075-.011.069.027-.023.051-.075-.016.067.032-.027.048-.073-.022.064.038-.03.045-.07-.027.06.042-.033.043-.069-.033.057.047-.036.04-.066-.038.053.051-.039.037-.063-.043.049.055-.019.016-.024.018-.06-.047.045.059-.02.014-.028.018-.056-.052.04.062-.018.012-.034.018-.051-.056.036.064-.017.01-.07.03a2 2 0 0 1-.76.086zm.03-2.361.04.062-.065.046-.014.012-.059.05-.02.02-.049.047-.025.029-.039.046-.024.03-.035.051-.021.032-.035.06-.016.028q-.024.045-.045.093a1.29 1.29 0 0 0 .383 1.56l.05.045a1.8 1.8 0 0 0 .677-.073l.061-.028.021-.01.036-.02.252-.232.115-.246.036-.196h-.175l-.683-.004h-.02c-.12 0-.301-.001-.362-.21a.41.41 0 0 1 .117-.417c.283-.301.642-.278.957-.213l.724-.012-.02-.036-.011-.022-.015-.026q-.015-.025-.033-.05l-.024-.036-.038-.046-.027-.032-.04-.04-.032-.03-.043-.034-.036-.03-.052-.033-.035-.022a1 1 0 0 0-.094-.05l-.134-.07-.02-.016-.012-.01-.022-.022-.01-.014-.018-.026-.009-.018-.005-.013-.075-.006a2 2 0 0 0-.114-.011l-.031-.001-.08-.003-.028.001q-.04 0-.077.004l-.023.002-.08.01-.034.005-.065.014-.036.009-.062.018-.033.01-.062.024-.028.011-.072.035-.05-.058.035.065a1 1 0 0 0-.084.05z"/><path fill="#D7AF94" d="M15.975 14.667c-.114.736-.743 1.09-1.251 1.259H5.67l.005-.009a.3.3 0 0 1 .054-.066l.014-.012.018-.014.015-.011.02-.012.016-.01.022-.012.015-.007.027-.013.012-.006.09-.04a.54.54 0 0 0 .199-.143q.059-.049.111-.1l.003-.003c.5-.489.642-1.17.363-1.739a1 1 0 0 0-.065-.118 1.17 1.17 0 0 0-.61-.666l-.02-.009-.029-.013-.006-.003-.022-.011-.01-.006-.016-.01-.01-.006-.014-.01-.01-.01-.011-.011-.008-.01-.01-.014-.006-.012-.01-.03-.002-.009h.94l7.203-.001q.159 0 .315-.005l.147-.002c.853.036 1.44.504 1.57 1.252.036.212.038.429.005.641"/><path fill="#2B2129" d="M14.735 16H5.544l.062-.11a.4.4 0 0 1 .073-.093l.017-.015.021-.017.128-.072.102-.046a.5.5 0 0 0 .17-.12l.012-.013q.056-.047.108-.096c.478-.468.615-1.117.35-1.656a1 1 0 0 0-.062-.113 1.1 1.1 0 0 0-.576-.636l-.126-.066-.018-.014-.013-.011-.017-.017-.01-.013-.015-.022-.01-.018-.01-.023-.005-.02-.018-.089.088-.013 8.143-.001q.156 0 .31-.004l.151-.003c.894.038 1.507.529 1.644 1.313.038.22.04.445.005.666-.119.773-.773 1.144-1.301 1.318zm-8.878-.148h8.854c.487-.163 1.084-.502 1.19-1.197q.049-.309-.004-.618c-.124-.71-.685-1.155-1.5-1.19l-.14.002q-.163.005-.319.005l-7.977.001.05.023q.092.044.176.1c.217.148.382.36.47.606q.036.055.064.113c.293.597.144 1.313-.378 1.824a2 2 0 0 1-.113.101l-.025.03a.6.6 0 0 1-.197.13l-.126.057-.048-.059.034.066zm-.03 0h.017l-.048-.05zm-.046 0h.01l-.03-.027z"/><path fill="#C2956D" d="M13.103 7.45a.54.54 0 0 1-.3.055c-.929-.007-1.873-.006-2.786-.005h-2.72c-.678-.001-1.368 0-2.05.005a.57.57 0 0 1-.315-.056.24.24 0 0 1-.086-.22.22.22 0 0 1 .081-.197l.024-.013a.7.7 0 0 1 .29-.042h.006c2.68.006 5.151.006 7.555 0 .104-.01.209.008.303.055a.23.23 0 0 1 .082.208.23.23 0 0 1-.084.21"/><path fill="#2B2129" d="M5.235 7.579a.6.6 0 0 1-.344-.07.32.32 0 0 1-.12-.28.29.29 0 0 1 .115-.258l.031-.018a.7.7 0 0 1 .324-.05c2.678.006 5.149.006 7.56 0 .12-.012.24.012.345.068a.374.374 0 0 1-.002.54.6.6 0 0 1-.342.068c-.932-.007-1.874-.006-2.785-.005H7.298c-.679-.001-1.369 0-2.05.005zm.012-.528a.7.7 0 0 0-.263.034l-.015.009c-.023.015-.049.044-.05.136 0 .106.028.14.055.157a.53.53 0 0 0 .273.044c.682-.005 1.372-.006 2.051-.006l1.694.002h1.025c.911-.002 1.853-.003 2.786.004a.5.5 0 0 0 .259-.042c.025-.017.05-.048.05-.15 0-.098-.024-.129-.05-.146a.5.5 0 0 0-.26-.043c-2.412.007-4.883.007-7.555 0"/><path fill="#C2956D" d="M5.22 9.903h.004c2.542.007 5.095.007 7.588 0h.005c.31 0 .365.085.37.273a.22.22 0 0 1-.08.203.56.56 0 0 1-.315.056c-.922-.006-1.86-.005-2.766-.004H8l-.684-.001c-.689 0-1.388 0-2.08.005a.56.56 0 0 1-.31-.055.22.22 0 0 1-.08-.206c.003-.183.06-.271.373-.271"/><path fill="#2B2129" d="M5.22 10.51a.6.6 0 0 1-.335-.07.3.3 0 0 1-.113-.267c.004-.25.125-.344.447-.344h.005c2.54.007 5.093.007 7.588 0 .327 0 .443.09.448.346a.29.29 0 0 1-.11.265.6.6 0 0 1-.359.07c-.925-.007-1.86-.006-2.764-.005H8l-.684-.001c-.689 0-1.388 0-2.079.005zm0-.607v.074c-.297 0-.298.074-.3.198 0 .096.024.127.049.144a.5.5 0 0 0 .267.042c.691-.005 1.391-.005 2.08-.005h2.71c.905 0 1.84-.001 2.766.005a.5.5 0 0 0 .274-.043c.022-.016.049-.046.046-.14-.003-.13-.004-.201-.295-.201-2.5.007-5.053.007-7.593 0z"/><path fill="#C2956D" d="M5.218 8.44h.005c2.537.007 5.09.007 7.588 0h.005c.312 0 .366.084.37.27a.22.22 0 0 1-.08.202.57.57 0 0 1-.313.056c-.932-.006-1.878-.006-2.794-.005H7.977c-.898 0-1.827-.002-2.74.005a.56.56 0 0 1-.31-.056.22.22 0 0 1-.08-.203c.002-.182.058-.269.371-.269"/><path fill="#2B2129" d="M5.217 9.042a.6.6 0 0 1-.332-.069.29.29 0 0 1-.113-.265c.004-.25.125-.342.446-.342h.005c2.538.007 5.09.007 7.588 0 .328 0 .444.09.45.343a.29.29 0 0 1-.112.264.62.62 0 0 1-.357.069c-.938-.007-1.88-.006-2.793-.005H7.955c-.89 0-1.812-.002-2.717.005zm.001-.602v.074c-.295 0-.296.074-.298.196-.001.095.025.125.049.141a.5.5 0 0 0 .268.043c.906-.007 1.827-.006 2.718-.005H10c.912 0 1.856-.002 2.794.005a.54.54 0 0 0 .272-.043c.023-.016.05-.046.047-.14-.002-.127-.004-.197-.296-.197-2.502.007-5.055.007-7.593 0z"/><path fill="#C2956D" d="M13.107 11.842a.5.5 0 0 1-.257.056h-.057c-.923-.007-1.86-.006-2.767-.005H8.004c-.907 0-1.844-.002-2.766.005a.57.57 0 0 1-.312-.055.22.22 0 0 1-.08-.203c.003-.183.06-.27.372-.27h.005a1379 1379 0 0 0 7.588 0h.005c.312 0 .366.084.37.27a.22.22 0 0 1-.079.202"/><path fill="#2B2129" d="M5.22 11.972a.6.6 0 0 1-.336-.068.29.29 0 0 1-.112-.265c.004-.25.125-.342.446-.342a1384 1384 0 0 0 7.593 0c.328 0 .444.09.45.342a.28.28 0 0 1-.112.264.54.54 0 0 1-.298.069h-.06c-.917-.006-1.85-.005-2.752-.005H8.003c-.909 0-1.845-.002-2.765.005zm.003-.527c-.3 0-.3.073-.303.196-.001.095.025.125.048.14a.5.5 0 0 0 .269.043c.92-.006 1.857-.005 2.762-.005h2.027a345 345 0 0 1 2.822.005q.114.007.217-.043c.023-.015.05-.045.047-.139-.002-.127-.004-.197-.296-.197a1329 1329 0 0 1-7.593 0"/><path fill="#C2956D" d="M13.107 5.986a.5.5 0 0 1-.257.055h-.057c-.923-.006-1.86-.005-2.767-.004H8.004c-.907-.001-1.844-.002-2.766.004a.57.57 0 0 1-.312-.055.22.22 0 0 1-.08-.203c.003-.182.06-.27.372-.27h.005a1367 1367 0 0 0 7.588 0h.005c.312 0 .366.084.37.271a.22.22 0 0 1-.079.202"/><path fill="#2B2129" d="M5.22 6.115a.6.6 0 0 1-.336-.068.29.29 0 0 1-.112-.265c.004-.25.125-.342.446-.342a1369 1369 0 0 0 7.593 0c.328 0 .444.09.45.343a.28.28 0 0 1-.112.264.54.54 0 0 1-.298.068h-.06c-.917-.006-1.85-.005-2.752-.004H8.003c-.909-.001-1.845-.002-2.765.004zm.003-.527c-.3 0-.3.074-.303.196-.001.095.025.125.048.141a.5.5 0 0 0 .269.042c.92-.006 1.857-.005 2.762-.004h2.027c.915-.001 1.849-.002 2.767.004h.055q.114.007.217-.042c.023-.016.05-.046.047-.14-.002-.127-.004-.197-.296-.197a1356 1356 0 0 1-7.593 0"/><path fill="#C2956D" d="M13.107 4.523a.5.5 0 0 1-.257.055h-.057c-.923-.006-1.86-.005-2.767-.004H8.004c-.907 0-1.844-.002-2.766.005a.57.57 0 0 1-.312-.056.22.22 0 0 1-.08-.203c.003-.182.06-.269.372-.269h.005a1371 1371 0 0 0 7.588 0h.005c.312 0 .366.084.37.27a.22.22 0 0 1-.079.202"/><path fill="#2B2129" d="M5.22 4.653a.6.6 0 0 1-.336-.068.29.29 0 0 1-.112-.266c.004-.249.125-.342.446-.342a1377 1377 0 0 0 7.593 0c.328 0 .444.09.45.343a.28.28 0 0 1-.112.264.54.54 0 0 1-.298.068h-.06c-.917-.006-1.85-.005-2.752-.004H8.003a345 345 0 0 0-2.782.005m.003-.528c-.3 0-.3.074-.303.197-.001.094.025.125.048.14a.5.5 0 0 0 .269.043c.92-.007 1.857-.006 2.762-.005h2.027c.915 0 1.849-.002 2.767.005h.055q.114.006.217-.043c.023-.016.05-.045.047-.139-.002-.127-.004-.198-.296-.198a1347 1347 0 0 1-7.593 0"/><path fill="#C2956D" d="M13.107 3.06a.5.5 0 0 1-.257.056h-.057c-.923-.006-1.86-.005-2.767-.004H8.004c-.907-.001-1.844-.002-2.766.004a.57.57 0 0 1-.312-.055.22.22 0 0 1-.08-.203c.003-.182.06-.27.372-.27h.005a1371 1371 0 0 0 7.588 0h.005c.312 0 .366.084.37.271a.22.22 0 0 1-.079.201"/><path fill="#2B2129" d="M5.22 3.19a.6.6 0 0 1-.336-.068.29.29 0 0 1-.112-.265c.004-.25.125-.342.446-.342a1373 1373 0 0 0 7.593 0c.328 0 .444.09.45.342a.28.28 0 0 1-.112.264.54.54 0 0 1-.298.069h-.06c-.917-.006-1.851-.005-2.754-.004H8.003c-.909-.001-1.845-.002-2.765.004zm.003-.527c-.3 0-.3.074-.303.196-.001.095.025.125.048.14a.5.5 0 0 0 .269.043c.92-.006 1.857-.005 2.762-.004h2.027a348 348 0 0 1 2.822.004q.114.007.217-.043c.023-.015.05-.045.047-.138-.002-.128-.004-.198-.296-.198a1347 1347 0 0 1-7.593 0"/></svg>