<svg xmlns="http://www.w3.org/2000/svg" width="19" height="16" fill="none"><path fill="url(#a)" d="m18.509 12.615-3.071 3.167a.72.72 0 0 1-.522.218H.356a.37.37 0 0 1-.195-.056.35.35 0 0 1-.131-.15.33.33 0 0 1 .066-.37l3.073-3.168a.71.71 0 0 1 .52-.218h14.56c.069 0 .137.02.195.056a.35.35 0 0 1 .131.15.33.33 0 0 1-.066.37m-3.071-6.378a.72.72 0 0 0-.522-.218H.356c-.069 0-.137.02-.195.056a.35.35 0 0 0-.131.15.33.33 0 0 0 .066.37l3.073 3.168a.71.71 0 0 0 .52.218h14.56c.069 0 .137-.02.195-.056a.35.35 0 0 0 .131-.15.33.33 0 0 0-.066-.37zM.357 3.962h14.559a.74.74 0 0 0 .522-.218l3.07-3.167a.331.331 0 0 0 .066-.37.35.35 0 0 0-.13-.15.37.37 0 0 0-.196-.057H3.69a.74.74 0 0 0-.52.218L.096 3.385a.33.33 0 0 0-.066.37.35.35 0 0 0 .13.15.37.37 0 0 0 .196.057"/><defs><linearGradient id="a" x1="1.57" x2="16.172" y1="16.381" y2="-.737" gradientUnits="userSpaceOnUse"><stop offset=".08" stop-color="#9945FF"/><stop offset=".3" stop-color="#8752F3"/><stop offset=".5" stop-color="#5497D5"/><stop offset=".6" stop-color="#43B4CA"/><stop offset=".72" stop-color="#28E0B9"/><stop offset=".97" stop-color="#19FB9B"/></linearGradient></defs></svg>