<svg xmlns="http://www.w3.org/2000/svg" width="17" height="16" fill="none"><path fill="#29296E" d="M16.457 8c0 4.418-3.684 8-8.228 8C3.684 16 0 12.418 0 8s3.684-8 8.229-8 8.228 3.582 8.228 8"/><path fill="#FAFAFA" d="m12.058 5.861-.21-.628a.42.42 0 0 0-.278-.267l-.65-.194a.093.093 0 0 1 0-.178l.646-.204a.42.42 0 0 0 .274-.27l.2-.632c.027-.087.154-.088.183-.001l.209.628a.42.42 0 0 0 .278.267l.65.194c.09.027.09.15.001.178l-.646.204a.42.42 0 0 0-.274.27l-.2.632c-.027.087-.154.088-.183.001"/><path fill="#FF4F0A" d="M.748 7.873c.196-.372.583-.653.985-.83a4.1 4.1 0 0 1 1.29-.319c.886-.077 1.748.066 2.533.315.405.117.767.28 1.141.445.182.085.353.181.529.274l.486.274c.534.318 1.05.6 1.537.818s.928.364 1.343.439a3.3 3.3 0 0 0 1.355-.04c.515-.114 1.094-.358 1.7-.671.609-.313 1.233-.698 1.946-1.073-.072.785-.3 1.52-.657 2.23-.365.703-.874 1.388-1.615 1.942a5.1 5.1 0 0 1-2.742 1.007c-1.017.067-1.985-.15-2.808-.478a9.3 9.3 0 0 1-2.173-1.252 12 12 0 0 1-.398-.315l-.36-.307c-.243-.185-.478-.406-.718-.589-.48-.39-.954-.78-1.474-1.118a6.4 6.4 0 0 0-.84-.473 4 4 0 0 0-.488-.182 2 2 0 0 0-.572-.097"/><path fill="#FAFAFA" d="M.748 7.873c.1-.807.487-1.564 1.108-2.209.617-.638 1.581-1.13 2.651-1.196a4.8 4.8 0 0 1 1.557.156c.491.132.95.325 1.365.552.207.114.4.239.594.365l.514.378.803.616c.52.403 1.018.777 1.478 1.085.464.308.859.534 1.236.666.374.144.847.18 1.471.028.31-.07.634-.196.979-.334.343-.14.7-.309 1.089-.475-.047.406-.132.81-.293 1.188a4.3 4.3 0 0 1-.644 1.107c-.146.17-.302.341-.484.499-.182.154-.384.3-.607.429-.445.25-.973.433-1.515.499a5 5 0 0 1-1.58-.07c-.498-.099-.951-.259-1.367-.443a9.7 9.7 0 0 1-2.138-1.346q-.461-.376-.87-.774l-.324-.316a10 10 0 0 0-.293-.267c-.393-.338-.757-.596-1.159-.757-.398-.168-.908-.238-1.534-.124-.624.113-1.307.375-2.037.743M4.037 12.037c0 .238-.2.432-.445.432a.44.44 0 0 1-.445-.432c0-.24.2-.433.445-.433.246 0 .445.194.445.433"/><path fill="#FAFAFA" d="M4.037 12.037c0 .238-.2.432-.445.432a.44.44 0 0 1-.445-.432c0-.24.2-.433.445-.433.246 0 .445.194.445.433"/></svg>