<svg xmlns="http://www.w3.org/2000/svg" width="16" height="16" fill="none"><path fill="#2C7DF7" d="M9.64 16q-1.727 0-2.517-.825t-.79-1.777q0-.349.138-.587c.09-.157.22-.286.377-.376a1.16 1.16 0 0 1 .588-.137q.348 0 .587.137.24.138.377.376.138.238.137.587 0 .42-.202.687a.94.94 0 0 1-.477.348q.24.33.753.467.514.147 1.028.147.717 0 1.295-.385t.854-1.136q.275-.752.275-1.705 0-1.035-.303-1.768-.293-.743-.872-1.1a2.33 2.33 0 0 0-1.249-.357q-.44 0-1.102.366l-.808.403v-.403l3.636-4.838H6.334v5.021q0 .624.275 1.027.276.403.845.403.44 0 .845-.293c.27-.198.507-.44.697-.715a.27.27 0 0 1 .092-.12.18.18 0 0 1 .12-.045q.1 0 .238.101.129.146.129.339-.015.13-.046.257-.312.696-.863 1.063c-.358.24-.78.369-1.212.366q-1.635 0-2.259-.641-.624-.643-.624-1.741V4.124H2v-.935h2.571V1.063L3.983.476V0h1.708l.643.33v2.859l6.647-.018.661.66-4.076 4.068q.372-.148.771-.183.66 0 1.488.421.835.413 1.285 1.137.45.714.578 1.374.138.66.138 1.173 0 1.174-.496 2.182a3.2 3.2 0 0 1-1.505 1.502A4.9 4.9 0 0 1 9.639 16"/></svg>